/* XPM */
static char *_8e8ccddc5774555c38eea420c45fb59UEHn2AD46ubZeKZX[] = {
/* columns rows colors chars-per-pixel */
"100 100 18 1 ",
"  c #50C293",
". c #A25342",
"X c #862B2A",
"o c #490A1E",
"O c #240312",
"+ c #28221E",
"@ c #7D595D",
"# c #595047",
"$ c #AA9393",
"% c #AEA8A8",
"& c #655452",
"* c #6C444C",
"= c #928182",
"- c #101010",
"; c #808080",
": c gray80",
"> c #5B3843",
", c #928684",
/* pixels */
"                                                                                                    ",
"                                                                                                    ",
"                                                                                                    ",
"                                                                                                    ",
"                                                                                                    ",
"                                                                                                    ",
"                                                                                                    ",
"                                                                                                    ",
"                                       ...........XXXXXooo                                          ",
"                                       ...........XXXXXooo                                          ",
"                                    ...........XXXXXoooooooo                                        ",
"                                    ...........XXXXXoooooooo                                        ",
"                                    ...........XXXXXoooooooo                                        ",
"                                    ........XXXXXXXXXXXoooooOOO                                     ",
"                                    ........XXXXXXXXXXXoooooOOO                                     ",
"                                    ........XXXXXXXXXXXoooooOOO                                     ",
"                                 ......XXXXXXXXXXXXXXXXXXXooOOO                                     ",
"                                 ......XXXXXXXXXXXXXXXXXXXooOOO                                     ",
"                                 ...ooo+++++@@@@@@##XXXXXXXXOOOOOO                                  ",
"                                 ...ooo+++++@@@@@@##XXXXXXXXOOOOOO                                  ",
"                                 ...ooo+++++@@@@@@##XXXXXXXXOOOOOO                                  ",
"                                 ...ooo++@@@@@@@@@##++++++oooooOOO                                  ",
"                                 ...ooo++@@@@@@@@@##++++++oooooOOO                                  ",
"                                 ...ooo++@@@@@@@@@##++++++oooooOOO                                  ",
"                                 ...ooo++$$$$$$$$$##@@@+++++oooOOOOO                                ",
"                                 ...ooo++$$$$$$$$$##@@@+++++oooOOOOO                                ",
"                                 ...ooo++$$$$$$$$$##@@@+++++oooOOOOO                                ",
"                                 XXXooo##$$$$$$$$$$$@@@###++OOOOOOOO                                ",
"                                 XXXooo##$$$$$$$$$$$@@@###++OOOOOOOO                                ",
"                                    ooo##$$$$$$$$$$$ooo###++OOOOOOOO                                ",
"                                    ooo##$$$$$$$$$$$ooo###++OOOOOOOO                                ",
"                                    ooo##$$$$$$$$$$$ooo###++OOOOOOOO                                ",
"                                    XXX##+++@@@@@@ooooo###++OOOOOO                                  ",
"                                    XXX##+++@@@@@@ooooo###++OOOOOO                                  ",
"                                    XXX##+++@@@@@@ooooo###++OOOOOO                                  ",
"                                       ##+++oooooooo######++                                        ",
"                                       ##+++oooooooo######++                                        ",
"                                    #####+++XXXXXXXXooo###++OOO                                     ",
"                                    #####+++XXXXXXXXooo###++OOO                                     ",
"                                    #####+++XXXXXXXXooo###++OOO                                     ",
"                                    ###.....XXXXXXooooo###OOOOOOOO                                  ",
"                                    ###.....XXXXXXooooo###OOOOOOOO                                  ",
"                                    ###.....XXXXXXooooo###OOOOOOOO                                  ",
"                                 ###........XXXXXXooooooooooOOOOOOOO                                ",
"                                 ###........XXXXXXooooooooooOOOOOOOO                                ",
"                                 ........XXXXXXooooooooooooooooOOOOO                                ",
"                                 ........XXXXXXooooooooooooooooOOOOO                                ",
"                                 ........XXXXXXooooooooooooooooOOOOO                                ",
"                                 %%%.....XXXXXXXXXXXooooooooOOOOOOOOOOO                             ",
"                                 %%%.....XXXXXXXXXXXooooooooOOOOOOOOOOO                             ",
"                                 %%%.....XXXXXXXXXXXooooooooOOOOOOOOOOO                             ",
"                                    %%%%%XXXXXXXXXXXXXXoooooOOOOOO&&&&&                             ",
"                                    %%%%%XXXXXXXXXXXXXXoooooOOOOOO&&&&&                             ",
"                                    %%%%%XXXXXXXXXXXXXXoooooOOOOOO&&&&&                             ",
"                                    $$$$$XXXXXXXXXXXXXXoooOOOOO&&&&&***                             ",
"                                    $$$$$XXXXXXXXXXXXXXoooOOOOO&&&&&***                             ",
"                                    $$$@@===XXXXXXXXooo=====&&&@@@*****                             ",
"                                    $$$@@===XXXXXXXXooo=====&&&@@@*****                             ",
"                                    $$$@@===XXXXXXXXooo=====&&&@@@*****                             ",
"                                    $$$@@---===========-----&&&;;;@@***                             ",
"                                    $$$@@---===========-----&&&;;;@@***                             ",
"                                    $$$@@---===========-----&&&:::@@***                             ",
"                                 $$$@@@---------------------------@@@@@***                          ",
"                                 $$$@@@---------------------------@@@@@***                          ",
"                                 @@@@@@---------------------------;;@@@***                          ",
"                                 @@@@@@---------------------------;;@@@***                          ",
"                                 @@@@@@---------------------------;;@@@***                          ",
"                                 @@@--------------------------------                                ",
"                                 @@@--------------------------------                                ",
"                                 @@@--------------------------------                                ",
"                                 --------------------------------------                             ",
"                                 --------------------------------------                             ",
"                                 --------------------------------------                             ",
"                               ----------------------------->>>--------                             ",
"                               ----------------------------->>>--------                             ",
"                                    %%%@@@@@-------------->>>>>>>>                                  ",
"                                    %%%@@@@@-------------->>>>>>>>                                  ",
"                                    %%%@@@@@-------------->>>>>>>>                                  ",
"                                       %%,,,,,,-----------  ,,,&&&                                  ",
"                                       %%,,,,,,-----------  ,,,&&&                                  ",
"                                       %%,,,,,,-----------  ,,,&&&                                  ",
"                                       %%,,,      -----     ,,,,,,&&                                ",
"                                       %%,,,      -----     ,,,,,,&&                                ",
"                                       %%,,,        ---        ,,,&&                                ",
"                                       %%,,,        ---        ,,,&&                                ",
"                                       %%,,,        ---        ,,,&&                                ",
"                                       --,,,                      &&---                             ",
"                                       --,,,                      &&---                             ",
"                                       --,,,                      &&---                             ",
"                                    --------                   --------                             ",
"                                    --------                   --------                             ",
"                                                                                                    ",
"                                                                                                    ",
"                                                                                                    ",
"                                                                                                    ",
"                                                                                                    ",
"                                                                                                    ",
"                                                                                                    ",
"                                                                                                    ",
"                                                                                                    "
};
