/* XPM */
static char *_9e2b9bad1a64783f0ebd43ce41d6a92rf6WsrWZcrYHlMPX[] = {
/* columns rows colors chars-per-pixel */
"100 100 18 1 ",
"  c #50C293",
". c #490A1E",
"X c #862B2A",
"o c #A25342",
"O c #240312",
"+ c #595047",
"@ c #7D595D",
"# c #28221E",
"$ c #AA9393",
"% c #AEA8A8",
"& c #655452",
"* c #6C444C",
"= c #928182",
"- c #808080",
"; c #101010",
": c gray80",
"> c #5B3843",
", c #928684",
/* pixels */
"                                                                                                    ",
"                                                                                                    ",
"                                                                                                    ",
"                                                                                                    ",
"                                                                                                    ",
"                                                                                                    ",
"                                                                                                    ",
"                                                                                                    ",
"                                          ...XXXXXooooooooooo                                       ",
"                                          ...XXXXXooooooooooo                                       ",
"                                        ........XXXXXooooooooooo                                    ",
"                                        ........XXXXXooooooooooo                                    ",
"                                        ........XXXXXooooooooooo                                    ",
"                                     OOO.....XXXXXXXXXXXoooooooo                                    ",
"                                     OOO.....XXXXXXXXXXXoooooooo                                    ",
"                                     OOO.....XXXXXXXXXXXoooooooo                                    ",
"                                     OOO..XXXXXXXXXXXXXXXXXXXoooooo                                 ",
"                                     OOO..XXXXXXXXXXXXXXXXXXXoooooo                                 ",
"                                  OOOOOOXXXXXXXX++@@@@@@#####...ooo                                 ",
"                                  OOOOOOXXXXXXXX++@@@@@@#####...ooo                                 ",
"                                  OOOOOOXXXXXXXX++@@@@@@#####...ooo                                 ",
"                                  OOO.....######++@@@@@@@@@##...ooo                                 ",
"                                  OOO.....######++@@@@@@@@@##...ooo                                 ",
"                                  OOO.....######++@@@@@@@@@##...ooo                                 ",
"                                OOOOO...#####@@@++$$$$$$$$$##...ooo                                 ",
"                                OOOOO...#####@@@++$$$$$$$$$##...ooo                                 ",
"                                OOOOO...#####@@@++$$$$$$$$$##...ooo                                 ",
"                                OOOOOOOO##+++@@@$$$$$$$$$$$++...XXX                                 ",
"                                OOOOOOOO##+++@@@$$$$$$$$$$$++...XXX                                 ",
"                                OOOOOOOO##+++...$$$$$$$$$$$++...                                    ",
"                                OOOOOOOO##+++...$$$$$$$$$$$++...                                    ",
"                                OOOOOOOO##+++...$$$$$$$$$$$++...                                    ",
"                                  OOOOOO##+++.....@@@@@@###++XXX                                    ",
"                                  OOOOOO##+++.....@@@@@@###++XXX                                    ",
"                                  OOOOOO##+++.....@@@@@@###++XXX                                    ",
"                                        ##++++++........###++                                       ",
"                                        ##++++++........###++                                       ",
"                                     OOO##+++...XXXXXXXX###+++++                                    ",
"                                     OOO##+++...XXXXXXXX###+++++                                    ",
"                                     OOO##+++...XXXXXXXX###+++++                                    ",
"                                  OOOOOOOO+++.....XXXXXXooooo+++                                    ",
"                                  OOOOOOOO+++.....XXXXXXooooo+++                                    ",
"                                  OOOOOOOO+++.....XXXXXXooooo+++                                    ",
"                                OOOOOOOO..........XXXXXXoooooooo+++                                 ",
"                                OOOOOOOO..........XXXXXXoooooooo+++                                 ",
"                                OOOOO................XXXXXXoooooooo                                 ",
"                                OOOOO................XXXXXXoooooooo                                 ",
"                                OOOOO................XXXXXXoooooooo                                 ",
"                             OOOOOOOOOOO........XXXXXXXXXXXooooo%%%                                 ",
"                             OOOOOOOOOOO........XXXXXXXXXXXooooo%%%                                 ",
"                             OOOOOOOOOOO........XXXXXXXXXXXooooo%%%                                 ",
"                             &&&&&OOOOOO.....XXXXXXXXXXXXXX%%%%%                                    ",
"                             &&&&&OOOOOO.....XXXXXXXXXXXXXX%%%%%                                    ",
"                             &&&&&OOOOOO.....XXXXXXXXXXXXXX%%%%%                                    ",
"                             ***&&&&&OOOOO...XXXXXXXXXXXXXX$$$$$                                    ",
"                             ***&&&&&OOOOO...XXXXXXXXXXXXXX$$$$$                                    ",
"                             *****@@@&&&=====...XXXXXXXX===@@$$$                                    ",
"                             *****@@@&&&=====...XXXXXXXX===@@$$$                                    ",
"                             *****@@@&&&=====...XXXXXXXX===@@$$$                                    ",
"                             ***@@---&&&;;;;;===========;;;@@$$$                                    ",
"                             ***@@---&&&;;;;;===========;;;@@$$$                                    ",
"                             ***@@:::&&&;;;;;===========;;;@@$$$                                    ",
"                          ***@@@@@;;;;;;;;;;;;;;;;;;;;;;;;;;;@@@$$$                                 ",
"                          ***@@@@@;;;;;;;;;;;;;;;;;;;;;;;;;;;@@@$$$                                 ",
"                          ***@@@--;;;;;;;;;;;;;;;;;;;;;;;;;;;@@@@@@                                 ",
"                          ***@@@--;;;;;;;;;;;;;;;;;;;;;;;;;;;@@@@@@                                 ",
"                          ***@@@--;;;;;;;;;;;;;;;;;;;;;;;;;;;@@@@@@                                 ",
"                                ;;;;;;;;;;;;;;;;;;;;;;;;;;;;;;;;@@@                                 ",
"                                ;;;;;;;;;;;;;;;;;;;;;;;;;;;;;;;;@@@                                 ",
"                                ;;;;;;;;;;;;;;;;;;;;;;;;;;;;;;;;@@@                                 ",
"                             ;;;;;;;;;;;;;;;;;;;;;;;;;;;;;;;;;;;;;;                                 ",
"                             ;;;;;;;;;;;;;;;;;;;;;;;;;;;;;;;;;;;;;;                                 ",
"                             ;;;;;;;;;;;;;;;;;;;;;;;;;;;;;;;;;;;;;;                                 ",
"                             ;;;;;;;;>>>;;;;;;;;;;;;;;;;;;;;;;;;;;;;;                               ",
"                             ;;;;;;;;>>>;;;;;;;;;;;;;;;;;;;;;;;;;;;;;                               ",
"                                  >>>>>>>>;;;;;;;;;;;;;;@@@@@%%%                                    ",
"                                  >>>>>>>>;;;;;;;;;;;;;;@@@@@%%%                                    ",
"                                  >>>>>>>>;;;;;;;;;;;;;;@@@@@%%%                                    ",
"                                  &&&,,,  ;;;;;;;;;;;,,,,,,%%                                       ",
"                                  &&&,,,  ;;;;;;;;;;;,,,,,,%%                                       ",
"                                  &&&,,,  ;;;;;;;;;;;,,,,,,%%                                       ",
"                                &&,,,,,,     ;;;;;      ,,,%%                                       ",
"                                &&,,,,,,     ;;;;;      ,,,%%                                       ",
"                                &&,,,        ;;;        ,,,%%                                       ",
"                                &&,,,        ;;;        ,,,%%                                       ",
"                                &&,,,        ;;;        ,,,%%                                       ",
"                             ;;;&&                      ,,,;;                                       ",
"                             ;;;&&                      ,,,;;                                       ",
"                             ;;;&&                      ,,,;;                                       ",
"                             ;;;;;;;;                   ;;;;;;;;                                    ",
"                             ;;;;;;;;                   ;;;;;;;;                                    ",
"                                                                                                    ",
"                                                                                                    ",
"                                                                                                    ",
"                                                                                                    ",
"                                                                                                    ",
"                                                                                                    ",
"                                                                                                    ",
"                                                                                                    ",
"                                                                                                    "
};
